<?xml version="1.0" standalone="no"?>
<!DOCTYPE svg PUBLIC "-//W3C//DTD SVG 20010904//EN"
 "http://www.w3.org/TR/2001/REC-SVG-20010904/DTD/svg10.dtd">
<svg version="1.0" xmlns="http://www.w3.org/2000/svg"
 width="168.000000pt" height="49.000000pt" viewBox="0 0 168.000000 49.000000"
 preserveAspectRatio="xMidYMid meet">

<g transform="translate(0.000000,49.000000) scale(0.100000,-0.100000)"
fill="#000000" stroke="none">
<path d="M64 350 c-31 -12 -64 -59 -64 -90 0 -32 33 -78 65 -90 26 -10 77 1
82 17 3 7 -11 9 -40 6 -39 -5 -46 -2 -65 22 -28 35 -28 57 1 90 23 27 47 33
85 21 31 -10 28 12 -4 24 -29 12 -32 12 -60 0z"/>
<path d="M203 345 c-37 -16 -53 -42 -53 -85 0 -44 16 -69 56 -86 29 -12 39
-12 68 0 40 17 56 42 56 86 0 42 -15 67 -50 85 -35 18 -36 18 -77 0z m91 -37
c36 -51 5 -118 -54 -118 -59 0 -90 67 -54 118 11 16 25 22 54 22 29 0 43 -6
54 -22z"/>
<path d="M772 344 c-38 -26 -26 -60 32 -89 30 -15 29 -59 -2 -63 -13 -2 -25 3
-28 12 -3 9 -13 16 -20 16 -20 0 -1 -36 27 -50 30 -17 69 11 69 49 0 29 -14
46 -53 66 -11 5 -22 16 -25 22 -6 19 28 28 50 14 29 -18 37 -2 9 20 -28 23
-31 23 -59 3z"/>
<path d="M925 351 c-79 -33 -78 -151 2 -182 25 -9 75 2 80 18 3 8 -9 9 -37 6
-53 -7 -80 15 -80 67 0 57 41 85 98 66 31 -10 28 12 -4 24 -29 12 -32 12 -59
1z"/>
<path d="M356 304 c-9 -69 -7 -134 4 -134 6 0 10 28 10 65 0 36 4 65 8 65 5 0
17 -28 28 -62 10 -34 24 -63 29 -65 6 -2 22 29 35 69 l25 73 5 -67 c5 -61 13
-88 25 -77 2 3 2 44 -2 92 -8 111 -26 115 -62 12 l-25 -69 -24 72 c-13 40 -29
72 -36 72 -8 0 -16 -19 -20 -46z"/>
<path d="M556 289 c-9 -87 -8 -119 4 -119 6 0 10 12 10 28 0 15 3 45 7 67 l6
40 22 -65 c12 -35 26 -65 31 -67 6 -2 22 28 35 68 l24 71 7 -67 c3 -37 9 -69
12 -73 14 -13 17 12 10 92 -8 104 -26 113 -56 26 -10 -30 -21 -62 -24 -70 -3
-9 -15 14 -28 55 -29 94 -51 99 -60 14z"/>
<path d="M1029 324 c-56 -60 -12 -159 71 -159 83 0 127 99 71 159 -27 29 -72
34 -91 11 -19 -23 -7 -49 33 -68 38 -18 46 -34 25 -55 -34 -34 -108 8 -108 62
0 17 7 42 16 54 20 29 13 28 -17 -4z"/>
<path d="M1210 260 c0 -88 16 -126 22 -52 2 31 7 38 28 40 14 2 31 11 38 20
30 39 1 82 -54 82 l-34 0 0 -90z m70 55 c18 -21 5 -45 -25 -45 -21 0 -25 5
-25 30 0 23 5 30 19 30 10 0 24 -7 31 -15z"/>
<path d="M1327 263 l2 -88 45 -3 c28 -2 46 1 46 7 0 6 -16 11 -35 11 -33 0
-35 2 -35 35 0 33 2 35 35 35 19 0 35 5 35 10 0 6 -16 10 -35 10 -31 0 -35 3
-35 25 0 22 4 25 35 25 19 0 35 5 35 10 0 6 -21 10 -47 10 l-48 0 2 -87z"/>
<path d="M1443 335 c0 -8 4 -12 9 -9 5 3 6 10 3 15 -9 13 -12 11 -12 -6z"/>
</g>
</svg>
