<?xml version="1.0" encoding="utf-8"?>
<!-- Generator: Adobe Illustrator 22.1.0, SVG Export Plug-In . SVG Version: 6.00 Build 0)  -->
<svg version="1.1" xmlns="http://www.w3.org/2000/svg" xmlns:xlink="http://www.w3.org/1999/xlink" x="0px" y="0px"
	 viewBox="0 0 1421 551" style="enable-background:new 0 0 1421 551;" xml:space="preserve">
<style type="text/css">
	.st0{fill:#A7CA44;}
	.st1{fill:#6CB3B9;}
</style>
<g id="Layer_2">
</g>
<g id="Layer_1">
	<path class="st0" d="M929,347c0,32.2,0,63.8,0,95.8c-28.1,0-55.8,0-83.7,0c0-109.1,0-218.2,0-327.9c6.2,0,12.3,0,18.4,0
		c40.8,0.1,81.6,0,122.4,0.4c11.1,0.1,22.4,0.5,33.2,2.9c47.8,10.6,78.8,44.3,86.3,92.4c6.1,39.5-3.3,75.4-32.4,104.7
		c-2.2,2.2-4.7,4.2-7.1,6.2c-2.2,1.9-4.5,3.9-7,6c7.8,12.8,15.5,25.2,23.1,37.7c12.2,19.7,24.1,39.5,36.6,58.9
		c3.8,5.9,4.6,11.8,4,19.1c-7.6,0-15.3,0-22.9,0c-21.8-0.1-43.6-0.3-65.5-0.2c-4.2,0-6.5-1.2-8.6-4.9
		c-16.3-28.3-32.9-56.3-49.1-84.7c-2.9-5-6-6.8-11.7-6.6C953.4,347.3,941.6,347,929,347z M929.3,272.1c2.2,0,4.2,0,6.1,0
		c18.3-0.1,36.6-0.5,54.9-0.1c8.4,0.1,14.9-3.1,20.6-8.4c14.7-13.6,17.9-39.8,7.1-57.1c-6.6-10.6-15.6-16.7-28.8-16.4
		c-18.3,0.3-36.6-0.1-54.9-0.2c-1.6,0-3.2,0.1-5,0.2C929.3,217.5,929.3,244.6,929.3,272.1z"/>
	<path class="st0" d="M329.6,317.3c-1.4,7.1-2.4,14-4.2,20.6c-15.6,59-55.1,92.9-113.5,104.8c-40.9,8.3-81.2,4.6-119.2-14.6
		c-44.2-22.3-72.1-57.8-82.7-106c-10.4-47.2-5.6-92.8,19.6-134.9c18.1-30.3,44.7-51,77.4-63.4c53.8-20.3,106.6-17.8,156.6,11.7
		c35.3,20.9,55.7,53,63.5,93.2c0.4,2.1,0.7,4.2,1,6.6c-1.7,0.1-3,0.3-4.2,0.3c-24.7,0-49.3,0.1-74-0.1c-1.8,0-4.6-1.6-5.2-3.1
		c-13.6-32.3-40.3-46.4-75.1-44.7c-38.6,1.9-67.5,27-75.3,66.5c-6,30.9-2,60.1,17.7,85.7c29.3,38.3,81.1,37.2,110.6,15.4
		c11.7-8.7,19.2-20.7,23.5-34.5c0.8-2.5,1.5-3.9,4.6-3.8c25.2,0.1,50.3,0.1,75.5,0.1C326.9,317,327.7,317.1,329.6,317.3z"/>
	<path class="st0" d="M1292.9,310.8c0,19.8,0,38.7,0,58.2c21.4,0,42.1,0,62.9,0c20.6,0,41.2,0,62.4,0c0,24.9,0,49.1,0,73.8
		c-69.2,0-138.5,0-208.3,0c0-109.1,0-218.1,0-327.5c68,0,135.9,0,204,0c0,24.8,0,49.4,0,74.5c-40.5,0-80.8,0-121.2,0
		c0,15.8,0,31,0,46.8c37.4,0,74.3,0,111.6,0c0,25,0,49.3,0,74.2C1367.2,310.8,1330.1,310.8,1292.9,310.8z"/>
	<path class="st0" d="M578.3,191.1c41.8,0,74.7,28.8,80.6,70.4c3.1,22,1.5,43.5-8.6,63.7c-14.5,29-45.2,45.5-77.7,43.1
		c-30.5-2.3-54-16-66.7-43.5c-16.5-35.8-14.8-71.6,9-104.4C528.6,201.5,552.8,191.1,578.3,191.1z"/>
	<path class="st1" d="M6.6,550c0-3,0-5.2,0-7.8c470.3,0,940.3,0,1410.4,0c1.7,6.4,0.8,7.5-5.7,7.5c-47.3,0-94.7,0-142,0
		c-395.1,0.1-790.2,0.1-1185.3,0.2c-23.8,0-47.7,0.1-71.5,0.1C10.7,550,8.9,550,6.6,550z"/>
	<path class="st1" d="M1417.1,5.6c0,2.4,0,4.5,0,7.1c-470,0-939.9,0-1410.1,0c0-2.2,0-4.3,0-7.1C476.8,5.6,946.7,5.6,1417.1,5.6z"/>
	<path class="st0" d="M409.8,109.8c47.1,0,94.5,0,141.9,0c-78.6,13-131.2,67.2-141.9,142.9C409.8,205,409.8,157.3,409.8,109.8z"/>
	<path class="st0" d="M554.8,450.2c-48.4,0-96.8,0-145.5,0c0-49.7,0-99.3,0-148.9C421.5,386.3,471,434.8,554.8,450.2z"/>
	<path class="st0" d="M745.8,450.2c-47.9,0-95.3,0-142.7,0c82.2-16.1,130.6-64.4,142.7-147.1C745.8,351.5,745.8,400.7,745.8,450.2z"
		/>
	<path class="st0" d="M604.5,109.7c46.9,0,93.9,0,140.9,0c0,45.4,0,91.1,0,136.7C729.2,168.8,681.1,125,604.5,109.7z"/>
</g>
</svg>
